<svg xmlns="http://www.w3.org/2000/svg" width="15.718" height="15.71" viewBox="0 0 15.718 15.71">
  <defs>
    <style>
      .cls-1 {
        fill: #fff;
        fill-rule: evenodd;
      }
    </style>
  </defs>
  <path id="cell" class="cls-1" d="M455.243,4283.06a1.94,1.94,0,0,0-.848-0.59c-0.141-.08-0.342-0.2-0.6-0.34s-0.5-.27-0.709-0.39-0.411-.23-0.6-0.34c-0.03-.03-0.123-0.09-0.279-0.2a2.724,2.724,0,0,0-.4-0.24,0.763,0.763,0,0,0-.319-0.08,0.947,0.947,0,0,0-.558.32,5.246,5.246,0,0,0-.613.69,7.752,7.752,0,0,1-.592.7,0.836,0.836,0,0,1-.513.31,0.663,0.663,0,0,1-.251-0.05,1.952,1.952,0,0,1-.229-0.1c-0.052-.02-0.142-0.08-0.268-0.15s-0.2-.12-0.212-0.13a11,11,0,0,1-4.565-4.57c-0.007-.01-0.05-0.08-0.128-0.21a1.972,1.972,0,0,1-.156-0.27,1.465,1.465,0,0,1-.1-0.23,0.714,0.714,0,0,1-.056-0.25,0.86,0.86,0,0,1,.318-0.51,5.894,5.894,0,0,1,.692-0.59,5.292,5.292,0,0,0,.692-0.62,0.9,0.9,0,0,0,.318-0.55,0.725,0.725,0,0,0-.078-0.32,3.214,3.214,0,0,0-.24-0.4c-0.108-.15-0.173-0.25-0.195-0.28-0.112-.18-0.227-0.38-0.346-0.59s-0.25-.45-0.391-0.71-0.253-.46-0.335-0.61a1.837,1.837,0,0,0-.591-0.84,0.492,0.492,0,0,0-.235-0.04,3.973,3.973,0,0,0-.787.11,5.136,5.136,0,0,0-.764.24,3.018,3.018,0,0,0-1.183,1.36,4.322,4.322,0,0,0-.569,2.08,4.385,4.385,0,0,0,.039.59,4.52,4.52,0,0,0,.139.64c0.067,0.23.121,0.41,0.162,0.52s0.117,0.33.229,0.62,0.179,0.48.2,0.55a9.958,9.958,0,0,0,.926,1.95,16.659,16.659,0,0,0,2.411,2.95,16.869,16.869,0,0,0,2.946,2.41,9.93,9.93,0,0,0,1.953.93c0.067,0.02.25,0.09,0.547,0.2s0.5,0.19.62,0.23,0.29,0.09.524,0.16a4.734,4.734,0,0,0,.642.14,5.729,5.729,0,0,0,.591.04,4.321,4.321,0,0,0,2.076-.57,3.018,3.018,0,0,0,1.362-1.18,4.7,4.7,0,0,0,.234-0.77,3.653,3.653,0,0,0,.112-0.79,0.592,0.592,0,0,0-.034-0.23h0Z" transform="translate(-439.563 -4270.88)"/>
</svg>
