<?xml version="1.0" encoding="UTF-8" standalone="no"?>
<svg
   xmlns:dc="http://purl.org/dc/elements/1.1/"
   xmlns:cc="http://creativecommons.org/ns#"
   xmlns:rdf="http://www.w3.org/1999/02/22-rdf-syntax-ns#"
   xmlns:svg="http://www.w3.org/2000/svg"
   xmlns="http://www.w3.org/2000/svg"
   xmlns:sodipodi="http://sodipodi.sourceforge.net/DTD/sodipodi-0.dtd"
   xmlns:inkscape="http://www.inkscape.org/namespaces/inkscape"
   width="191"
   height="40"
   viewBox="0 0 191 40"
   version="1.1"
   id="svg58"
   sodipodi:docname="footer-logo.svg"
   inkscape:version="0.92.1 r15371">
  <metadata
     id="metadata62">
    <rdf:RDF>
      <cc:Work
         rdf:about="">
        <dc:format>image/svg+xml</dc:format>
        <dc:type
           rdf:resource="http://purl.org/dc/dcmitype/StillImage" />
      </cc:Work>
    </rdf:RDF>
  </metadata>
  <sodipodi:namedview
     pagecolor="#ffffff"
     bordercolor="#666666"
     borderopacity="1"
     objecttolerance="10"
     gridtolerance="10"
     guidetolerance="10"
     inkscape:pageopacity="0"
     inkscape:pageshadow="2"
     inkscape:window-width="2034"
     inkscape:window-height="927"
     id="namedview60"
     showgrid="false"
     inkscape:zoom="6.989621"
     inkscape:cx="77.75195"
     inkscape:cy="12.229087"
     inkscape:window-x="0"
     inkscape:window-y="0"
     inkscape:window-maximized="0"
     inkscape:current-layer="svg58" />
  <defs
     id="defs4">
    <style
       id="style2">
  .cls-1 {
fill: #3556a0;
}
.cls-1, .cls-2, .cls-3, .cls-4, .cls-5, .cls-6, .cls-7 {
fill-rule: evenodd;
}
.cls-2 {
fill: #619bd2;
}
.cls-3 {
fill: #4373b8;
}
.cls-4 {
fill: #587cbd;
}
.cls-5 {
fill: #679ad4;
}
.cls-6 {
fill: #679bd5;
}
.cls-7 {
fill: #679ad2;
}
</style>
  </defs>
  <path
     class="cls-1"
     d="m 24.651596,9.9128341 a 36.539698,36.539698 0 0 1 1.723118,11.6025249 c 0,1.28003 -0.372241,4.876362 -0.360234,4.988035 A 36.969576,36.969576 0 0 1 22.376121,37.232352 L 20.58696,40.12803 20.893159,40.05658 A 22.565635,22.565635 0 0 0 25.221966,37.811127 26.01247,26.01247 0 0 0 28.9744,34.946069 31.715569,31.715569 0 0 0 38.910844,11.914532 40.106011,40.106011 0 0 0 38.520591,5.7377264 L 38.220396,5.6566738 A 16.010584,16.010584 0 0 1 36.2211,5.5450014 29.040834,29.040834 0 0 0 26.975103,6.7031525 c -0.360233,0.091259 -2.89988,0.792514 -3.001947,1.1785643 0.06004,0.3950562 0.528343,1.5411996 0.67844,2.0311173 z"
     id="path6"
     inkscape:connector-curvature="0"
     style="fill:#ffffff;fill-rule:evenodd;stroke-width:0.60038936;fill-opacity:1" />
  <path
     class="cls-2"
     d="M 0.10767864,9.4229164 C 0.36584608,9.1893649 0.2457682,8.4070575 0.30580714,8.0714399 a 10.51582,10.51582 0 0 1 0.6724361,1.7879595 15.68097,15.68097 0 0 0 2.80982226,4.7244636 33.423677,33.423677 0 0 0 3.6863908,3.810071 l 1.4229229,1.249411 c 0,-0.640015 2.5696668,-3.342368 2.9959428,-3.769245 a 35.783207,35.783207 0 0 1 7.498864,-5.8838157 c 0.780506,-0.436483 3.842492,-2.2046298 4.58097,-2.1133706 0.120078,-0.3860504 2.659725,-1.0873051 3.001947,-1.1785643 A 29.043836,29.043836 0 0 1 36.2211,5.5299916 15.975761,15.975761 0 0 0 38.220396,5.6416641 C 37.830143,5.0628887 32.072409,2.3599357 31.435996,2.0963648 A 27.475619,27.475619 0 0 0 27.593504,0.83554708 26.129546,26.129546 0 0 0 23.805047,0.15470552 1.0542837,1.0542837 0 0 1 23.216666,-0.008 H 18.7978 c -0.210136,0.10146581 -2.533643,0.30439742 -3.001947,0.37584375 -1.00265,0.14229228 -1.921246,0.38605037 -2.881869,0.61960184 A 30.259625,30.259625 0 0 0 7.7266199,2.8264383 34.72412,34.72412 0 0 0 3.1756684,5.3258592 C 2.7253763,5.62005 0.35984218,7.1036122 0.22775652,7.6523681 A 13.388683,13.388683 0 0 0 0.10767864,9.4199144 v 0 z"
     id="path8"
     inkscape:connector-curvature="0"
     style="fill:#ffffff;fill-rule:evenodd;stroke-width:0.60038936;fill-opacity:1" />
  <path
     class="cls-3"
     d="M 1.5065859,20.905964 A 31.705362,31.705362 0 0 0 16.504313,38.451142 c 0.702455,0.386051 1.440934,0.761895 2.173409,1.087306 0.516335,0.233551 1.78916,1.015858 2.209433,0.528342 l -0.312202,0.07085 1.78916,-2.895678 A 36.757039,36.757039 0 0 0 25.972453,26.5136 c -0.516335,0.314604 -1.999297,-0.142292 -2.659725,-0.264171 A 35.081352,35.081352 0 0 1 10.584473,20.824311 9.5395868,9.5395868 0 0 0 8.8853714,19.655953 L 7.4744563,18.395135 A 34.031871,34.031871 0 0 1 3.7940694,14.574858 15.887504,15.887504 0 0 1 0.97824324,9.8606002 10.13037,10.13037 0 0 0 0.30580714,8.062434 c -0.0660428,0.3860504 0.0600389,1.0764982 -0.1981285,1.3610828 A 28.853513,28.853513 0 0 0 1.5065859,20.905964 Z"
     id="path10"
     inkscape:connector-curvature="0"
     style="fill:#ffffff;fill-rule:evenodd;stroke-width:0.60038936;fill-opacity:1" />
  <g
     id="g32"
     transform="matrix(0.60038938,0,0,0.60038938,0.00561245,-0.00319688)">
    <path
       class="cls-4"
       d="m 1503.33,93.844 c -1.83,9.392 -16.22,10.271 -19.99,1.963 a 9.988,9.988 0 0 1 -0.71,-4.924 41.5,41.5 0 0 1 0.1,-5.686 c 1.66,-9.426 16.53,-10.153 20.1,-1.946 a 10.75,10.75 0 0 1 0.7,4.958 37.868,37.868 0 0 1 -0.12,5.635 z m -29.41,-7.92 a 55.3,55.3 0 0 0 0.25,9.189 14.954,14.954 0 0 0 15.42,12.539 c 7.61,0 15.22,1.269 20.4,-7.463 a 15.582,15.582 0 0 0 2.08,-7.141 55.031,55.031 0 0 0 -0.21,-9.256 14.9,14.9 0 0 0 -15.46,-12.54 91.544,91.544 0 0 0 -9.16,0.085 15.136,15.136 0 0 0 -13.32,14.587 z"
       transform="translate(-1234,-60)"
       id="path12"
       inkscape:connector-curvature="0"
       style="fill:#ffffff;fill-rule:evenodd;fill-opacity:1" />
    <path
       class="cls-5"
       d="m 1369.48,93.083 c 1.83,-0.542 14.61,0.2 16.94,-0.136 1.81,-0.254 2.16,-1.9 2.18,-3.469 0,-4.518 -2.88,-3.571 -7.83,-3.571 -1.66,0 -10.31,0.119 -11.25,0 v -6.954 c 1.06,-0.288 17.25,-0.136 19.73,-0.118 4.83,0 3.01,-5.551 2.55,-6.109 -1,-1.219 -2.62,-0.948 -4.02,-0.948 h -24.88 c -3.33,0 -2.64,1.286 -2.64,7.361 v 25.383 c 0,1.945 0.33,2.656 2.36,2.656 h 24.81 c 1.29,0 3.24,0.271 4.18,-0.744 0.94,-1.015 2.22,-6.279 -2.29,-6.245 -1.5,-0.1 -18.71,0 -19.84,-0.152 z"
       transform="translate(-1234,-60)"
       id="path14"
       inkscape:connector-curvature="0"
       style="fill:#ffffff;fill-rule:evenodd;fill-opacity:1" />
    <path
       class="cls-6"
       d="m 1329.9,92.355 v -13.74 c 0.96,-0.187 10.39,0 12.15,0 a 5.328,5.328 0 0 1 4.27,1.861 c 1.41,1.692 1.28,2.86 1.28,5.076 0,2.216 0.1,3.215 -1.25,4.907 a 5.351,5.351 0 0 1 -4.15,1.98 c -1.66,0 -11.39,0.118 -12.29,0 -0.01,-13.824 -0.01,-0.084 -0.01,-0.084 z m 0,6.769 c 3.69,-0.559 13.47,0.508 16.97,-0.373 a 11.4,11.4 0 0 0 8.32,-9.205 36.837,36.837 0 0 0 -0.08,-8.461 11.866,11.866 0 0 0 -3.03,-5.855 c -4.13,-4.128 -8.94,-3.384 -14.26,-3.384 -2.55,0 -6.13,0.22 -8.56,0 -9.29,-0.761 -8.71,0 -8.71,4.011 v 22.217 c 0,9.375 -0.71,9.02 4.2,9.02 a 20.9,20.9 0 0 0 4.13,-0.17 c 1.66,-0.727 0.82,-4.805 1.02,-7.869 v 0.068 z"
       transform="translate(-1234,-60)"
       id="path16"
       inkscape:connector-curvature="0"
       style="fill:#ffffff;fill-rule:evenodd;fill-opacity:1" />
    <path
       class="cls-4"
       d="m 1526.43,92.423 c -0.12,-1.828 -0.24,-12.76 0,-13.944 3.84,-0.186 8.32,0 12.14,0 a 5.606,5.606 0 0 1 4.24,1.828 6.41,6.41 0 0 1 1.37,5.077 6.872,6.872 0 0 1 -1.17,5.076 c -2.11,2.844 -6.34,2.082 -10.34,2.082 a 58.583,58.583 0 0 1 -6.23,0 z m 16.97,6.21 a 11.33,11.33 0 0 0 8.32,-9.138 34.217,34.217 0 0 0 0,-8.46 11.183,11.183 0 0 0 -3.08,-5.737 c -4.09,-4.129 -8.76,-3.385 -14.04,-3.385 -2.73,0 -5.91,0.152 -8.57,0 -1.57,-0.1 -7.13,-0.609 -8.23,0.237 -1.1,0.846 -0.73,2.657 -0.73,3.707 v 22 c 0,9.611 -0.73,9.1 4.04,9.1 a 25.179,25.179 0 0 0 4.28,-0.135 c 1.97,-0.728 0.44,-6.211 1.12,-7.734 1.33,-0.54 13.49,0.424 16.89,-0.455 z"
       transform="translate(-1234,-60)"
       id="path18"
       inkscape:connector-curvature="0"
       style="fill:#ffffff;fill-rule:evenodd;fill-opacity:1" />
    <path
       class="cls-6"
       d="m 1396.69,103.27 v -3.385 a 82.671,82.671 0 0 1 8.93,-3.6 v 7.6 a 5.606,5.606 0 0 1 -0.28,2.5 c 0.75,-0.559 0.45,-2.065 0.45,-2.944 0,-1.591 -0.2,-9.713 0.11,-10.035 a 15.117,15.117 0 0 1 4.33,-0.153 9.378,9.378 0 0 1 4.03,0.525 c -0.31,-0.66 0,0 -0.56,-0.559 a 24.4,24.4 0 0 1 3.83,-1.489 10.608,10.608 0 0 1 3.94,-1.184 2.983,2.983 0 0 0 -0.83,-0.9 40.67,40.67 0 0 0 4.05,-4.264 70.707,70.707 0 0 0 4.4,-8.106 c 0.51,-1.066 3.59,-5.076 0.25,-5.195 h -4.23 c -2.32,0 -3.34,2.03 -4.47,3.841 -1.13,1.811 -2.1,3.52 -3.1,5.28 -2.94,5.077 -3.18,5.5 -11.65,5.077 -0.17,-2.471 0,-8.072 0,-11.1 0,-3.384 0,-3.723 -7.51,-3.384 -2.55,0.118 -1.89,3.384 -1.89,5.449 V 103.1 c 0,0.981 -0.3,2.589 0.49,3.249 a 7.82,7.82 0 0 1 -0.29,-3.079 z"
       transform="translate(-1234,-60)"
       id="path20"
       inkscape:connector-curvature="0"
       style="fill:#ffffff;fill-rule:evenodd;fill-opacity:1" />
    <path
       class="cls-4"
       d="m 1459.86,102.507 c 0,4.942 -0.28,4.519 5,4.519 1,0 3.65,0.389 3.93,-0.829 0.46,-4.824 0.17,-10.847 0.17,-15.822 0,-3.384 0.14,-13.368 0,-15.939 l -12.95,4.094 c 0.97,0.441 3.62,-0.338 3.85,0.39 v 23.588 z"
       transform="translate(-1234,-60)"
       id="path22"
       inkscape:connector-curvature="0"
       style="fill:#ffffff;fill-rule:evenodd;fill-opacity:1" />
    <path
       class="cls-4"
       d="m 1434.1,102.2 c -0.27,1.151 -0.85,2.42 -1.05,3.5 -0.45,2.42 5.71,1.878 6.86,1.506 2.03,-0.677 2.62,-3.994 3.15,-5.855 1.66,-5.973 2.65,-12.031 4.99,-17.616 0.32,-0.744 1.4,-2.623 1.5,-2.962 -0.18,-0.27 -2.13,0.542 -2.58,0.678 l -2.73,0.913 a 54.04,54.04 0 0 0 -5.64,2.013 c -0.92,1.886 -3.74,14.509 -4.5,17.823 z"
       transform="translate(-1234,-60)"
       id="path24"
       inkscape:connector-curvature="0"
       style="fill:#ffffff;fill-rule:evenodd;fill-opacity:1" />
    <path
       class="cls-7"
       d="m 1444.17,82.388 2.74,-0.913 c 0.44,-0.153 2.39,-0.965 2.58,-0.677 0.63,-0.321 1.11,-0.862 1.96,-1.236 a 7.832,7.832 0 0 1 2.32,-0.66 44.186,44.186 0 0 1 6.08,0 c -0.22,-0.727 -2.89,0 -3.9,-0.406 l 12.94,-4.095 c 0.2,2.572 0,12.59 0,15.94 0,4.975 0.3,11 -0.17,15.822 0.65,-0.593 0.38,-3.588 0.38,-4.569 V 77.176 c 0,-5.449 0.54,-5.432 -4.31,-5.432 h -9.61 c -5.09,0 -10.52,0.694 -13.74,5.517 a 28.925,28.925 0 0 0 -2.84,7.124 54.656,54.656 0 0 1 5.57,-1.997 z"
       transform="translate(-1234,-60)"
       id="path26"
       inkscape:connector-curvature="0"
       style="fill:#ffffff;fill-rule:evenodd;fill-opacity:1" />
    <path
       class="cls-4"
       d="m 1416.23,95.57 c 2.03,2.4 6.21,10.948 8.09,11.422 a 26.791,26.791 0 0 0 3.85,0.135 c 1.07,0 2.81,0.187 3.53,-0.389 0.45,-1.692 -1.13,-3.131 -1.95,-4.484 -0.82,-1.353 -1.66,-2.775 -2.56,-4.214 -0.9,-1.439 -4.52,-7.582 -5.67,-7.582 a 10.615,10.615 0 0 0 -3.94,1.185 24.364,24.364 0 0 0 -3.83,1.489 c 0.53,0.542 0.25,-0.05 0.56,0.609 0.27,0.34 1.39,1.186 1.92,1.829 z"
       transform="translate(-1234,-60)"
       id="path28"
       inkscape:connector-curvature="0"
       style="fill:#ffffff;fill-rule:evenodd;fill-opacity:1" />
    <path
       class="cls-4"
       d="m 1401.11,107.026 c 1.08,0 3.86,0.372 4.28,-0.677 a 5.6,5.6 0 0 0 0.28,-2.5 v -7.6 a 82.587,82.587 0 0 0 -8.93,3.6 v 3.385 a 7.792,7.792 0 0 0 0.24,3.113 c 0.48,1.068 3.04,0.679 4.13,0.679 z"
       transform="translate(-1234,-60)"
       id="path30"
       inkscape:connector-curvature="0"
       style="fill:#ffffff;fill-rule:evenodd;fill-opacity:1" />
  </g>
</svg>
