<svg xmlns="http://www.w3.org/2000/svg" width="25.719" height="16.37" viewBox="0 0 25.719 16.37">
  <defs>
    <style>
      .cls-1 {
        fill: #b5c6e5;
        fill-rule: evenodd;
      }
    </style>
  </defs>
  <path id="G_" data-name="G+" class="cls-1" d="M501.237,5304.17h-7.723v2.81h4.643a4.227,4.227,0,0,1-.24.83,4.072,4.072,0,0,1-.547.93,4.628,4.628,0,0,1-.876.87,4.218,4.218,0,0,1-1.278.64,5.146,5.146,0,0,1-1.7.26,4.9,4.9,0,0,1-2.539-.69,5.213,5.213,0,0,1,0-8.95,4.9,4.9,0,0,1,2.539-.69,4.509,4.509,0,0,1,3.259,1.26l2.221-2.13a7.736,7.736,0,0,0-5.48-2.15,8.055,8.055,0,0,0-3.181.65,8,8,0,0,0-4.352,4.35,8.127,8.127,0,0,0,0,6.36,8.128,8.128,0,0,0,1.741,2.62,8.312,8.312,0,0,0,2.611,1.74,8.046,8.046,0,0,0,3.181.64,8.194,8.194,0,0,0,4.118-1.02,6.976,6.976,0,0,0,2.768-2.83,8.631,8.631,0,0,0,.971-4.14,7.2,7.2,0,0,0-.134-1.36h0Zm7.478,0v-2.33h-2.344v2.33h-2.332v2.35h2.332v2.33h2.344v-2.33h2.333v-2.35h-2.333Z" transform="translate(-485.344 -5297.16)"/>
</svg>
