<svg xmlns="http://www.w3.org/2000/svg" width="11.437" height="17.15" viewBox="0 0 11.437 17.15">
  <defs>
    <style>
      .cls-1 {
        fill: #fff;
        fill-rule: evenodd;
      }
    </style>
  </defs>
  <path id="gps" class="cls-1" d="M447.277,4162.45a2.846,2.846,0,1,1,2.02-.83A2.738,2.738,0,0,1,447.277,4162.45Zm4.04-6.89a5.714,5.714,0,0,0-9.754,4.04,4.748,4.748,0,0,0,.368,2l4.074,8.63a1.249,1.249,0,0,0,.519.58,1.4,1.4,0,0,0,1.506,0,1.317,1.317,0,0,0,.53-0.58l4.063-8.63a4.748,4.748,0,0,0,.368-2A5.491,5.491,0,0,0,451.317,4155.56Z" transform="translate(-441.563 -4153.88)"/>
</svg>
