<svg xmlns:svg="http://www.w3.org/2000/svg" xmlns="http://www.w3.org/2000/svg" xmlns:sodipodi="http://sodipodi.sourceforge.net/DTD/sodipodi-0.dtd" xmlns:inkscape="http://www.inkscape.org/namespaces/inkscape" width="318" height="68" viewBox="0 0 318 68">
<defs><style>
  .cls-1 {
fill: #3556a0;
}
.cls-1, .cls-2, .cls-3, .cls-4, .cls-5, .cls-6, .cls-7 {
fill-rule: evenodd;
}
.cls-2 {
fill: #619bd2;
}
.cls-3 {
fill: #4373b8;
}
.cls-4 {
fill: #587cbd;
}
.cls-5 {
fill: #679ad4;
}
.cls-6 {
fill: #679bd5;
}
.cls-7 {
fill: #679ad2;
}
</style>
</defs>
<path class="cls-1" d="M1275.05,76.516a60.86,60.86,0,0,1,2.87,19.325c0,2.132-.62,8.122-0.6,8.308a61.576,61.576,0,0,1-6.06,17.87l-2.98,4.823,0.51-.119a37.585,37.585,0,0,0,7.21-3.74,43.326,43.326,0,0,0,6.25-4.772A52.825,52.825,0,0,0,1298.8,79.85a66.8,66.8,0,0,0-.65-10.288l-0.5-.135a26.667,26.667,0,0,1-3.33-.186,48.37,48.37,0,0,0-15.4,1.929c-0.6.152-4.83,1.32-5,1.963C1274.02,73.791,1274.8,75.7,1275.05,76.516Z"
transform="translate(-1234 -60)" /><path class="cls-2" d="M1234.17,75.7c0.43-.389.23-1.692,0.33-2.251a17.515,17.515,0,0,1,1.12,2.978,26.118,26.118,0,0,0,4.68,7.869,55.67,55.67,0,0,0,6.14,6.346l2.37,2.081c0-1.066,4.28-5.567,4.99-6.278a59.6,59.6,0,0,1,12.49-9.8c1.3-.727,6.4-3.672,7.63-3.52,0.2-.643,4.43-1.811,5-1.963a48.375,48.375,0,0,1,15.4-1.946,26.609,26.609,0,0,0,3.33.186c-0.65-.964-10.24-5.466-11.3-5.905a45.763,45.763,0,0,0-6.4-2.1,43.521,43.521,0,0,0-6.31-1.134,1.756,1.756,0,0,1-.98-0.271h-7.36c-0.35.169-4.22,0.507-5,.626-1.67.237-3.2,0.643-4.8,1.032a50.4,50.4,0,0,0-8.64,3.063,57.836,57.836,0,0,0-7.58,4.163c-0.75.49-4.69,2.961-4.91,3.875a22.3,22.3,0,0,0-.2,2.944h0Z"
transform="translate(-1234 -60)" /><path class="cls-3" d="M1236.5,94.826a52.808,52.808,0,0,0,24.98,29.223c1.17,0.643,2.4,1.269,3.62,1.811,0.86,0.389,2.98,1.692,3.68.88l-0.52.118,2.98-4.823a61.222,61.222,0,0,0,6.01-17.869c-0.86.524-3.33-.237-4.43-0.44a58.431,58.431,0,0,1-21.2-9.036,15.889,15.889,0,0,0-2.83-1.946l-2.35-2.1a56.683,56.683,0,0,1-6.13-6.363,26.462,26.462,0,0,1-4.69-7.852,16.873,16.873,0,0,0-1.12-2.995c-0.11.643,0.1,1.793-.33,2.267A48.058,48.058,0,0,0,1236.5,94.826Z" transform="translate(-1234 -60)" /><g><path class="cls-4" d="M1503.33,93.844c-1.83,9.392-16.22,10.271-19.99,1.963a9.988,9.988,0,0,1-.71-4.924,41.5,41.5,0,0,1,.1-5.686c1.66-9.426,16.53-10.153,20.1-1.946a10.75,10.75,0,0,1,.7,4.958,37.868,37.868,0,0,1-.12,5.635h-0.08Zm-29.41-7.92a55.3,55.3,0,0,0,.25,9.189,14.954,14.954,0,0,0,15.42,12.539c7.61,0,15.22,1.269,20.4-7.463a15.582,15.582,0,0,0,2.08-7.141,55.031,55.031,0,0,0-.21-9.256,14.9,14.9,0,0,0-15.46-12.54,91.544,91.544,0,0,0-9.16.085A15.136,15.136,0,0,0,1473.92,85.924Z" transform="translate(-1234 -60)" /><path class="cls-5" d="M1369.48,93.083c1.83-.542,14.61.2,16.94-0.136,1.81-.254,2.16-1.9,2.18-3.469,0-4.518-2.88-3.571-7.83-3.571-1.66,0-10.31.119-11.25,0V78.953c1.06-.288,17.25-0.136,19.73-0.118,4.83,0,3.01-5.551,2.55-6.109-1-1.219-2.62-.948-4.02-0.948H1362.9c-3.33,0-2.64,1.286-2.64,7.361v25.383c0,1.945.33,2.656,2.36,2.656h24.81c1.29,0,3.24.271,4.18-.744s2.22-6.279-2.29-6.245c-1.5-.1-18.71,0-19.84-0.152V93.083Z" transform="translate(-1234 -60)" /><path class="cls-6" d="M1329.9,92.355V78.615c0.96-.187,10.39,0,12.15,0a5.328,5.328,0,0,1,4.27,1.861c1.41,1.692,1.28,2.86,1.28,5.076s0.1,3.215-1.25,4.907a5.351,5.351,0,0,1-4.15,1.98c-1.66,0-11.39.118-12.29,0C1329.9,78.615,1329.9,92.355,1329.9,92.355Zm0,6.769c3.69-.559,13.47.508,16.97-0.373a11.4,11.4,0,0,0,8.32-9.205,36.837,36.837,0,0,0-.08-8.461,11.866,11.866,0,0,0-3.03-5.855c-4.13-4.128-8.94-3.384-14.26-3.384-2.55,0-6.13.22-8.56,0-9.29-.761-8.71,0-8.71,4.011V98.074c0,9.375-.71,9.02,4.2,9.02a20.9,20.9,0,0,0,4.13-.17c1.66-.727.82-4.805,1.02-7.869v0.068Z" transform="translate(-1234 -60)" /><path class="cls-4" d="M1526.43,92.423c-0.12-1.828-.24-12.76,0-13.944,3.84-.186,8.32,0,12.14,0a5.606,5.606,0,0,1,4.24,1.828,6.41,6.41,0,0,1,1.37,5.077,6.872,6.872,0,0,1-1.17,5.076c-2.11,2.844-6.34,2.082-10.34,2.082a58.583,58.583,0,0,1-6.23,0Zm16.97,6.21a11.33,11.33,0,0,0,8.32-9.138,34.217,34.217,0,0,0,0-8.46,11.183,11.183,0,0,0-3.08-5.737c-4.09-4.129-8.76-3.385-14.04-3.385-2.73,0-5.91.152-8.57,0-1.57-.1-7.13-0.609-8.23.237s-0.73,2.657-.73,3.707v22c0,9.611-.73,9.1,4.04,9.1a25.179,25.179,0,0,0,4.28-.135c1.97-.728.44-6.211,1.12-7.734C1527.84,98.548,1540,99.512,1543.4,98.633Z"
transform="translate(-1234 -60)" /><path class="cls-6" d="M1396.69,103.27V99.885a82.671,82.671,0,0,1,8.93-3.6v7.6a5.606,5.606,0,0,1-.28,2.5c0.75-.559.45-2.065,0.45-2.944,0-1.591-.2-9.713.11-10.035a15.117,15.117,0,0,1,4.33-.153,9.378,9.378,0,0,1,4.03.525c-0.31-.66,0,0-0.56-0.559a24.4,24.4,0,0,1,3.83-1.489,10.608,10.608,0,0,1,3.94-1.184,2.983,2.983,0,0,0-.83-0.9,40.67,40.67,0,0,0,4.05-4.264,70.707,70.707,0,0,0,4.4-8.106c0.51-1.066,3.59-5.076.25-5.195h-4.23c-2.32,0-3.34,2.03-4.47,3.841s-2.1,3.52-3.1,5.28c-2.94,5.077-3.18,5.5-11.65,5.077-0.17-2.471,0-8.072,0-11.1,0-3.384,0-3.723-7.51-3.384-2.55.118-1.89,3.384-1.89,5.449V103.1c0,0.981-.3,2.589.49,3.249A7.82,7.82,0,0,1,1396.69,103.27Z"
transform="translate(-1234 -60)" /><path class="cls-4" d="M1459.86,102.507c0,4.942-.28,4.519,5,4.519,1,0,3.65.389,3.93-.829,0.46-4.824.17-10.847,0.17-15.822,0-3.384.14-13.368,0-15.939l-12.95,4.094c0.97,0.441,3.62-.338,3.85.39v23.588Z" transform="translate(-1234 -60)" /><path class="cls-4" d="M1434.1,102.2c-0.27,1.151-.85,2.42-1.05,3.5-0.45,2.42,5.71,1.878,6.86,1.506,2.03-.677,2.62-3.994,3.15-5.855,1.66-5.973,2.65-12.031,4.99-17.616,0.32-.744,1.4-2.623,1.5-2.962-0.18-.27-2.13.542-2.58,0.678l-2.73.913a54.04,54.04,0,0,0-5.64,2.013C1437.68,86.263,1434.86,98.886,1434.1,102.2Z" transform="translate(-1234 -60)" /><path class="cls-7" d="M1444.17,82.388l2.74-.913c0.44-.153,2.39-0.965,2.58-0.677,0.63-.321,1.11-0.862,1.96-1.236a7.832,7.832,0,0,1,2.32-.66,44.186,44.186,0,0,1,6.08,0c-0.22-.727-2.89,0-3.9-0.406l12.94-4.095c0.2,2.572,0,12.59,0,15.94,0,4.975.3,11-.17,15.822,0.65-.593.38-3.588,0.38-4.569V77.176c0-5.449.54-5.432-4.31-5.432h-9.61c-5.09,0-10.52.694-13.74,5.517a28.925,28.925,0,0,0-2.84,7.124A54.656,54.656,0,0,1,1444.17,82.388Z" transform="translate(-1234 -60)" /><path class="cls-4" d="M1416.23,95.57c2.03,2.4,6.21,10.948,8.09,11.422a26.791,26.791,0,0,0,3.85.135c1.07,0,2.81.187,3.53-.389,0.45-1.692-1.13-3.131-1.95-4.484s-1.66-2.775-2.56-4.214-4.52-7.582-5.67-7.582a10.615,10.615,0,0,0-3.94,1.185,24.364,24.364,0,0,0-3.83,1.489c0.53,0.542.25-.05,0.56,0.609C1414.58,94.081,1415.7,94.927,1416.23,95.57Z" transform="translate(-1234 -60)" /><path class="cls-4" d="M1401.11,107.026c1.08,0,3.86.372,4.28-.677a5.6,5.6,0,0,0,.28-2.5v-7.6a82.587,82.587,0,0,0-8.93,3.6v3.385a7.792,7.792,0,0,0,.24,3.113C1397.46,107.415,1400.02,107.026,1401.11,107.026Z" transform="translate(-1234 -60)" /></g><g transform="matrix(0.993,0,0,0.993,202.454,68.051)"><path d="m -103.35565,0 h -2.47272 l -0.64153,-1.8747771 h -3.43813 L -110.54956,0 h -2.41043 l 3.42567,-9.2742296 h 2.753 z m -3.6935,-3.5751564 -1.13981,-3.3260165 -1.13982,3.3260165 z" style="font-size:12.75595856px" id="path23" /><path d="m -93.84474,-9.2742296 -3.375844,7.418138 q -0.29274,0.641535 -0.672678,1.03393021 -0.379938,0.39239521 -0.78479,0.57925007 -0.404853,0.19308336 -0.803476,0.24913982 -0.392395,0.05605645 -0.784792,0.05605645 -0.43599,0 -1.03393,-0.02491398 Q -101.89818,0.01868549 -102.09127,0 v -2.024261 h 0.14326 q 0.1308,0.037371 0.46091,0.08097 0.33011,0.037371 0.65399,0.037371 0.61662,0 0.996558,-0.1183414 0.386166,-0.1183414 0.473365,-0.3114248 l -3.768243,-6.9385438 h 2.59729 l 2.304539,4.3973177 1.899691,-4.3973177 z" style="font-size:12.75595856px" id="path25" /><path
d="m -85.361529,-7.480423 h -2.89625 V 0 h -2.391742 v -7.480423 h -2.896251 v -1.7938066 h 8.184243 z" style="font-size:12.75595856px" id="path27" /><path
d="m -79.73097,0.18062637 q -1.03393,0 -1.912148,-0.30519628 -0.871989,-0.30519627 -1.501067,-0.90936029 -0.629078,-0.6041641 -0.977874,-1.5072959 -0.342567,-0.9031319 -0.342567,-2.086546 0,-1.1024437 0.33011,-1.999347 0.33011,-0.8969033 0.959188,-1.5384384 0.604164,-0.616621 1.494839,-0.9529597 0.896904,-0.3363388 1.955748,-0.3363388 0.585478,0 1.052615,0.068513 0.473366,0.062285 0.87199,0.1681694 0.417309,0.1183414 0.753648,0.2678253 0.342567,0.1432554 0.597935,0.2678253 v 2.2484869 h -0.274054 q -0.174397,-0.1494839 -0.442223,-0.3550243 -0.261596,-0.2055403 -0.597935,-0.4048522 -0.342567,-0.1993118 -0.741191,-0.3363387 -0.398624,-0.1370269 -0.853304,-0.1370269 -0.504508,0 -0.959188,0.1619409 -0.454681,0.1557123 -0.840847,0.5231936 -0.367481,0.3550242 -0.597936,0.9405028 -0.224226,0.5854785 -0.224226,1.4200969 0,0.8719894 0.242912,1.4574679 0.24914,0.5854786 0.622849,0.9218174 0.379938,0.3425672 0.847076,0.4920511 0.467137,0.1432554 0.921817,0.1432554 0.435995,0 0.859532,-0.1307984 0.429766,-0.1307984 0.791019,-0.3550243 0.305196,-0.1806263 0.566793,-0.3861667 0.261597,-0.2055403 0.429766,-0.3550242 h 0.24914 v 2.21734436 q -0.348795,0.15571238 -0.666449,0.29273928 -0.317653,0.1370269 -0.666449,0.23668282 -0.45468,0.13079841 -0.853304,0.19931186 -0.398623,0.0685135 -1.096215,0.0685135 z" style="font-size:12.75595856px" id="path29"/><path d="m -65.660798,-4.6340006 q 0,2.2173444 -1.270613,3.5253284 -1.270613,1.30175556 -3.512872,1.30175556 -2.236029,0 -3.506642,-1.30175556 -1.270614,-1.307984 -1.270614,-3.5253284 0,-2.2360298 1.270614,-3.5315569 1.270613,-1.3017555 3.506642,-1.3017555 2.229802,0 3.506643,1.3017555 1.276842,1.2955271 1.276842,3.5315569 z m -3.170304,2.3481428 q 0.348796,-0.4235377 0.516965,-0.9965593 0.168169,-0.57925 0.168169,-1.357812 0,-0.8346183 -0.193083,-1.4200969 -0.193083,-0.5854786 -0.504508,-0.9467313 -0.317653,-0.3737097 -0.734963,-0.5418791 -0.41108,-0.1681694 -0.859532,-0.1681694 -0.45468,0 -0.859532,0.1619409 -0.398624,0.1619409 -0.734963,0.5356506 -0.311425,0.3487957 -0.510736,0.9654168 -0.193084,0.6103925 -0.193084,1.4200969 0,0.8283899 0.186855,1.4138685 0.193083,0.5792501 0.504508,0.9467313 0.311425,0.3674812 0.728734,0.5418791 0.417309,0.1743979 0.878218,0.1743979 0.460909,0 0.878218,-0.1743979 0.417309,-0.1806264 0.728734,-0.5543361 z" style="font-size:12.75595856px" id="path31"/><path d="m -56.187257,-6.3468368 q 0,0.6228495 -0.217997,1.2207851 -0.217998,0.5917071 -0.62285,0.9965593 -0.554336,0.5481076 -1.23947,0.8283898 -0.678906,0.2802823 -1.694151,0.2802823 h -1.488611 V 0 h -2.391742 v -9.2742296 h 3.936409 q 0.884447,0 1.488611,0.1557124 0.610392,0.1494838 1.077529,0.4546801 0.560565,0.3674812 0.853304,0.9405028 0.298968,0.5730216 0.298968,1.3764975 z m -2.472713,0.056057 q 0,-0.3923953 -0.211768,-0.6726775 -0.211769,-0.2865108 -0.492052,-0.3986238 -0.373709,-0.1494838 -0.728734,-0.1619408 -0.355024,-0.018686 -0.946731,-0.018686 h -0.411081 v 2.7779089 h 0.685135 q 0.610393,0 1.002788,-0.074742 0.398623,-0.074742 0.666449,-0.2989678 0.230454,-0.1993118 0.33011,-0.4733656 0.105884,-0.2802823 0.105884,-0.678906 z" style="font-size:12.75595856px" id="path33" /><path d="m -50.307557,0.18062637 q -1.033931,0 -1.912149,-0.30519628 -0.871989,-0.30519627 -1.501067,-0.90936029 -0.629078,-0.6041641 -0.977874,-1.5072959 -0.342567,-0.9031319 -0.342567,-2.086546 0,-1.1024437 0.33011,-1.999347 0.330111,-0.8969033 0.959189,-1.5384384 0.604164,-0.616621 1.494838,-0.9529597 0.896904,-0.3363388 1.955748,-0.3363388 0.585479,0 1.052616,0.068513 0.473365,0.062285 0.871989,0.1681694 0.417309,0.1183414 0.753648,0.2678253 0.342567,0.1432554 0.597936,0.2678253 v 2.2484869 h -0.274054 q -0.174398,-0.1494839 -0.442223,-0.3550243 -0.261597,-0.2055403 -0.597936,-0.4048522 -0.342567,-0.1993118 -0.741191,-0.3363387 -0.398624,-0.1370269 -0.853304,-0.1370269 -0.504508,0 -0.959188,0.1619409 -0.45468,0.1557123 -0.840847,0.5231936 -0.367481,0.3550242 -0.597935,0.9405028 -0.224226,0.5854785 -0.224226,1.4200969 0,0.8719894 0.242911,1.4574679 0.24914,0.5854786 0.62285,0.9218174 0.379938,0.3425672 0.847075,0.4920511 0.467137,0.1432554 0.921817,0.1432554 0.435995,0 0.859533,-0.1307984 0.429766,-0.1307984 0.791019,-0.3550243 0.305196,-0.1806263 0.566793,-0.3861667 0.261596,-0.2055403 0.429766,-0.3550242 h 0.24914 v 2.21734436 q -0.348796,0.15571238 -0.666449,0.29273928 -0.317654,0.1370269 -0.666449,0.23668282 -0.454681,0.13079841 -0.853304,0.19931186 -0.398624,0.0685135 -1.096215,0.0685135 z" style="font-size:12.75595856px" id="path35" /><path
d="m -36.79795,0 h -2.329458 V -6.1724389 L -42.976618,0 h -2.279629 v -9.2742296 h 2.329457 v 5.5869603 l 3.581385,-5.5869603 h 2.547455 z" style="font-size:12.75595856px" id="path37" /> <path
d="m -26.153455,0 h -2.391743 v -4.085893 h -3.531557 V 0 h -2.391742 v -9.2742296 h 2.391742 v 3.39453 h 3.531557 v -3.39453 h 2.391743 z" style="font-size:12.75595856px" id="path39" /><path
d="m -17.09099,-7.480423 h -4.297662 V 0 h -2.391742 v -9.2742296 h 6.689404 z" style="font-size:12.75595856px"
id="path41" /><path d="m -6.6395769,-4.6340006 q 0,2.2173444 -1.2706131,3.5253284 -1.270613,1.30175556 -3.512871,1.30175556 -2.23603,0 -3.506643,-1.30175556 -1.270613,-1.307984 -1.270613,-3.5253284 0,-2.2360298 1.270613,-3.5315569 1.270613,-1.3017555 3.506643,-1.3017555 2.229801,0 3.5066425,1.3017555 1.2768416,1.2955271 1.2768416,3.5315569 z m -3.1703042,2.3481428 q 0.3487958,-0.4235377 0.5169651,-0.9965593 0.1681694,-0.57925 0.1681694,-1.357812 0,-0.8346183 -0.1930833,-1.4200969 -0.1930834,-0.5854786 -0.5045082,-0.9467313 -0.3176529,-0.3737097 -0.7349629,-0.5418791 -0.41108,-0.1681694 -0.859532,-0.1681694 -0.45468,0 -0.859532,0.1619409 -0.398624,0.1619409 -0.734963,0.5356506 -0.311424,0.3487957 -0.510736,0.9654168 -0.193084,0.6103925 -0.193084,1.4200969 0,0.8283899 0.186855,1.4138685 0.193084,0.5792501 0.504508,0.9467313 0.311425,0.3674812 0.728734,0.5418791 0.417309,0.1743979 0.878218,0.1743979 0.460909,0 0.878218,-0.1743979 0.417309,-0.1806264 0.7287339,-0.5543361 z" style="font-size:12.75595856px" id="path43" /><path
d="m 3.1142503,-2.8401939 q 0,0.6726775 -0.2740538,1.2020996 Q 2.5723712,-1.1086722 2.0990056,-0.75987644 1.550898,-0.34879574 0.89067748,-0.17439787 0.23668546,0 -0.77233079,0 H -4.8208528 v -9.2742296 h 3.6000703 q 1.12112921,0 1.63809433,0.074742 0.52319361,0.074742 1.03393027,0.3301103 0.5294221,0.2678253 0.7847904,0.7225054 0.2615968,0.4484517 0.2615968,1.0277018 0,0.6726775 -0.3550242,1.1896426 -0.3550243,0.5107366 -1.0027878,0.7972474 v 0.049828 q 0.9093603,0.1806263 1.4387824,0.7474194 0.5356506,0.5667931 0.5356506,1.4948389 z M 0.0498306,-6.6520331 q 0,-0.2304543 -0.11834141,-0.4609086 -0.11211292,-0.2304544 -0.4048522,-0.3425673 -0.26159681,-0.099656 -0.65399199,-0.1058844 -0.3861667,-0.012457 -1.0899867,-0.012457 h -0.2242259 v 1.9619761 h 0.3737098 q 0.566793,0 0.9654168,-0.018686 0.39862366,-0.018685 0.62907799,-0.1245699 0.32388176,-0.1432554 0.42353768,-0.3674813 0.09965593,-0.2304543 0.09965593,-0.5294221 z m 0.58547857,3.7744682 q 0,-0.4422231 -0.17439787,-0.678906 -0.16816938,-0.2429113 -0.57925007,-0.3612527 -0.2802823,-0.08097 -0.77233343,-0.087199 -0.4920511,-0.00623 -1.0277017,-0.00623 h -0.5231937 v 2.3107718 h 0.1743979 q 1.0090163,0 1.44501095,-0.00623 0.43599467,-0.00623 0.8034759,-0.1619409 0.37370972,-0.1557124 0.51073662,-0.4110807 0.1432554,-0.2615968 0.1432554,-0.5979356 z" style="font-size:12.75595856px" id="path45" /><path d="M 13.466003,0 H 10.99329 L 10.351755,-1.8747771 H 6.9136256 L 6.2720906,0 H 3.8616629 L 7.2873354,-9.2742296 H 10.04033 Z M 9.772505,-3.5751564 8.6326904,-6.9011729 7.4928757,-3.5751564 Z" style="font-size:12.75595856px" id="path47" /><path d="M 22.584527,0 H 20.205242 V -3.4007585 H 18.903486 L 16.5678,0 h -2.833965 l 2.77168,-3.8429817 q -0.840847,-0.3612527 -1.320441,-1.0214732 -0.473365,-0.6602205 -0.473365,-1.7315217 0,-0.7100485 0.311424,-1.2394706 0.317654,-0.5294221 0.803476,-0.8657609 0.423538,-0.2927392 1.027702,-0.4297661 0.610393,-0.1432554 1.395183,-0.1432554 h 4.335033 z m -2.379285,-5.0699952 v -2.4976267 h -1.183415 q -0.541879,0 -0.834618,0.037371 -0.292739,0.031143 -0.566793,0.2366828 -0.211769,0.1557124 -0.323882,0.4110807 -0.112113,0.2491398 -0.112113,0.5543361 0,0.3176532 0.118342,0.5730216 0.118341,0.2491398 0.33011,0.4110807 0.236683,0.1868548 0.554336,0.2304543 0.323882,0.0436 0.847075,0.0436 z"
style="font-size:12.75595856px" id="path49" /><path d="M 37.962684,0 H 35.029062 L 32.288524,-3.7433257 H 31.703046 V 0 h -2.391742 v -9.2742296 h 2.391742 v 3.7806967 q 0.292739,-0.012457 0.485822,-0.056057 0.193084,-0.049828 0.355025,-0.1681694 0.168169,-0.1245699 0.361252,-0.3674812 0.193084,-0.2491398 0.404853,-0.6103925 0.130798,-0.2242259 0.292739,-0.5294222 0.168169,-0.3114247 0.280282,-0.5107366 0.479594,-0.8408469 1.009016,-1.1958711 0.529423,-0.3612527 1.600724,-0.3612527 0.317653,0 0.566793,0.012457 0.24914,0.00623 0.367481,0.00623 v 2.011804 H 36.73567 q -0.510737,0 -0.797247,0.2615968 -0.280283,0.2615968 -0.62285,0.9218173 -0.342567,0.653992 -0.560564,0.9218173 -0.217998,0.2615968 -0.423538,0.3737097 z" style="font-size:12.75595856px" id="path51" /><path d="m 48.171184,-4.6340006 q 0,2.2173444 -1.270613,3.5253284 -1.270614,1.30175556 -3.512872,1.30175556 -2.23603,0 -3.506643,-1.30175556 -1.270613,-1.307984 -1.270613,-3.5253284 0,-2.2360298 1.270613,-3.5315569 1.270613,-1.3017555 3.506643,-1.3017555 2.229801,0 3.506643,1.3017555 1.276842,1.2955271 1.276842,3.5315569 z m -3.170305,2.3481428 q 0.348796,-0.4235377 0.516966,-0.9965593 0.168169,-0.57925 0.168169,-1.357812 0,-0.8346183 -0.193083,-1.4200969 -0.193084,-0.5854786 -0.504509,-0.9467313 -0.317653,-0.3737097 -0.734962,-0.5418791 -0.411081,-0.1681694 -0.859532,-0.1681694 -0.454681,0 -0.859533,0.1619409 -0.398623,0.1619409 -0.734962,0.5356506 -0.311425,0.3487957 -0.510737,0.9654168 -0.193083,0.6103925 -0.193083,1.4200969 0,0.8283899 0.186855,1.4138685 0.193083,0.5792501 0.504508,0.9467313 0.311425,0.3674812 0.728734,0.5418791 0.417309,0.1743979 0.878218,0.1743979 0.460908,0 0.878217,-0.1743979 0.41731,-0.1806264 0.728734,-0.5543361 z" style="font-size:12.75595856px" id="path53" /><path d="m 59.712589,0 h -2.379285 v -6.2098099 l -1.719065,4.0298365 H 53.963688 L 52.244623,-6.2098099 V 0 h -2.254715 v -9.2742296 h 2.777909 l 2.086546,4.652686 2.080317,-4.652686 h 2.777909 z" style="font-size:12.75595856px" id="path55" /><path d="M 70.388232,0 H 67.996489 V -7.480423 H 64.464932 V 0 H 62.07319 v -9.2742296 h 8.315042 z" style="font-size:12.75595856px" id="path57" /><path d="M 81.331695,0 H 78.858982 L 78.217447,-1.8747771 H 74.779318 L 74.137783,0 h -2.410428 l 3.425672,-9.2742296 h 2.752995 z m -3.693498,-3.5751564 -1.139814,-3.3260165 -1.139815,3.3260165 z" style="font-size:12.75595856px" id="path59" /><path d="M 90.992083,0 H 88.600341 V -4.085893 H 85.068784 V 0 h -2.391743 v -9.2742296 h 2.391743 v 3.39453 h 3.531557 v -3.39453 h 2.391742 z" style="font-size:12.75595856px" id="path61" /><path d="M 101.82345,0 H 99.493991 V -6.1724389 L 95.644781,0 h -2.279629 v -9.2742296 h 2.329457 v 5.5869603 l 3.581385,-5.5869603 h 2.547456 z" style="font-size:12.75595856px" id="path63" /><path d="m 111.92606,0 h -2.37928 v -3.4007585 h -1.30176 L 105.90934,0 h -2.83397 l 2.77168,-3.8429817 q -0.84084,-0.3612527 -1.32044,-1.0214732 -0.47336,-0.6602205 -0.47336,-1.7315217 0,-0.7100485 0.31142,-1.2394706 0.31765,-0.5294221 0.80348,-0.8657609 0.42353,-0.2927392 1.0277,-0.4297661 0.61039,-0.1432554 1.39518,-0.1432554 h 4.33503 z m -2.37928,-5.0699952 v -2.4976267 h -1.18342 q -0.54187,0 -0.83461,0.037371 -0.29274,0.031143 -0.5668,0.2366828 -0.21177,0.1557124 -0.32388,0.4110807 -0.11211,0.2491398 -0.11211,0.5543361 0,0.3176532 0.11834,0.5730216 0.11834,0.2491398 0.33011,0.4110807 0.23668,0.1868548 0.55434,0.2304543 0.32388,0.0436 0.84707,0.0436 z" style="font-size:12.75595856px" id="path65" /></g></svg>