<svg xmlns="http://www.w3.org/2000/svg" width="20" height="20" viewBox="0 0 20 20">
  <defs>
    <style>
      .cls-1 {
        fill: #fff;
        fill-rule: evenodd;
      }
    </style>
  </defs>
  <path id="mail" class="cls-1" d="M451.779,4357.51a0.33,0.33,0,0,0-.268.07c-0.409.32-1.573,1.23-3.493,2.7l-0.485.39c-0.287.23-.512,0.4-0.676,0.52a6.051,6.051,0,0,1-.63.36,1.5,1.5,0,0,1-.653.19h-0.022a1.49,1.49,0,0,1-.653-0.19,6.078,6.078,0,0,1-.631-0.36c-0.164-.12-0.389-0.29-0.675-0.52l-0.486-.39q-2.366-1.815-3.415-2.64a0.338,0.338,0,0,0-.273-0.07,0.331,0.331,0,0,0-.24.14l-0.413.58a0.355,0.355,0,0,0-.073.26,0.312,0.312,0,0,0,.14.23c0.29,0.23.746,0.58,1.367,1.06s1.155,0.89,1.6,1.24,0.688,0.53.725,0.56c0.283,0.23.506,0.41,0.67,0.53s0.39,0.28.68,0.46a3.212,3.212,0,0,0,.849.41,2.633,2.633,0,0,0,.826.13h0.022a2.642,2.642,0,0,0,.826-0.13,3.3,3.3,0,0,0,.854-0.41c0.293-.18.519-0.34,0.675-0.45s0.379-.3.669-0.54q0.045-.03.748-0.57c0.469-.37,1.014-0.79,1.635-1.27s1.092-.84,1.412-1.1a0.3,0.3,0,0,0,.128-0.22,0.379,0.379,0,0,0-.072-0.27l-0.435-.57A0.319,0.319,0,0,0,451.779,4357.51Zm2.249,8.41a0.35,0.35,0,0,1-.251.11H437.348a0.351,0.351,0,0,1-.251-0.11,0.337,0.337,0,0,1-.106-0.25v-10.36c0.052-.05.13-0.12,0.235-0.21,0.394-.37.7-0.65,0.915-0.83s0.7-.57,1.445-1.16,1.922-1.51,3.521-2.74q0.034-.03.48-0.39t0.681-.54a4.9,4.9,0,0,1,.625-0.36,1.562,1.562,0,0,1,.659-0.2h0.022a1.562,1.562,0,0,1,.658.2,4.9,4.9,0,0,1,.625.36c0.157,0.11.383,0.29,0.681,0.54s0.458,0.37.48,0.39q3.326,2.565,4.342,3.39c0.513,0.42,1.1.93,1.774,1.55v10.36A0.333,0.333,0,0,1,454.028,4365.92Zm1.077-11.66c-0.655-.61-1.4-1.25-2.243-1.93s-1.682-1.33-2.523-1.97-1.421-1.1-1.741-1.36c-0.267-.23-0.487-0.4-0.658-0.54s-0.4-.28-0.686-0.46a3.433,3.433,0,0,0-.849-0.41,2.7,2.7,0,0,0-.831-0.14h-0.022a2.7,2.7,0,0,0-.832.14,3.411,3.411,0,0,0-.848.41c-0.287.18-.515,0.33-0.686,0.46s-0.391.31-.659,0.54c-0.045.03-.912,0.71-2.6,2.02s-2.992,2.39-3.907,3.24a1.4,1.4,0,0,0-.457,1.05v10.36a1.782,1.782,0,0,0,1.785,1.78h16.429a1.784,1.784,0,0,0,1.786-1.78v-10.36a1.4,1.4,0,0,0-.458-1.05h0Z" transform="translate(-435.563 -4347.47)"/>
</svg>
