<svg xmlns="http://www.w3.org/2000/svg" width="17.593" height="14.31" viewBox="0 0 17.593 14.31">
  <defs>
    <style>
      .cls-1 {
        fill: #b5c6e5;
        fill-rule: evenodd;
      }
    </style>
  </defs>
  <path id="twitter" class="cls-1" d="M574.338,5297.45a3.481,3.481,0,0,0,1.585-1.98,7.259,7.259,0,0,1-2.288.87,3.6,3.6,0,0,0-6.239,2.47,3.953,3.953,0,0,0,.089.82,9.916,9.916,0,0,1-4.146-1.11,10.246,10.246,0,0,1-3.287-2.66,3.618,3.618,0,0,0-.056,3.54,3.6,3.6,0,0,0,1.172,1.28,3.464,3.464,0,0,1-1.629-.46v0.05a3.477,3.477,0,0,0,.82,2.29,3.593,3.593,0,0,0,2.07,1.25,3.808,3.808,0,0,1-.948.12,4.245,4.245,0,0,1-.681-0.06,3.5,3.5,0,0,0,1.272,1.78,3.452,3.452,0,0,0,2.1.72,7.037,7.037,0,0,1-4.475,1.54,7.743,7.743,0,0,1-.871-0.04,10.007,10.007,0,0,0,5.536,1.62,10.675,10.675,0,0,0,3.605-.61,9.275,9.275,0,0,0,2.879-1.63,11.006,11.006,0,0,0,2.06-2.35,10.594,10.594,0,0,0,1.289-2.77,10.313,10.313,0,0,0,.424-2.9c0-.21,0-0.37-0.011-0.47a7.489,7.489,0,0,0,1.808-1.86,7.266,7.266,0,0,1-2.076.55h0Z" transform="translate(-558.813 -5295.19)"/>
</svg>
